<svg xmlns="http://www.w3.org/2000/svg" xmlns:xlink="http://www.w3.org/1999/xlink" version="1.1" viewBox="0 0 1108 1420" style="background: #ffffff"><defs joint-selector="defs"></defs><g joint-selector="layers"  transform="matrix(1,0,0,1,0,0)"><g ></g><g ><g   id="j_329"  transform="translate(20,1375)"><g id="v-3702"><text  id="v-3703" font-size="22px" xml:space="preserve" y="0.8em" font-weight="normal" text-anchor="start" fill="#aaaaaa" pointer-events="none" font-family="Open Sans"><tspan dy="0" >вторник, 18 июля 2023 г., 22:54 Самарское стандартное время</tspan></text></g></g><g   id="j_328"  transform="translate(20,1331)"><g id="v-3700"><text  id="v-3701" font-size="36px" xml:space="preserve" y="0.8em" font-weight="normal" text-anchor="start" fill="#000000" pointer-events="none" font-family="Open Sans"><tspan dy="0" >[Component] Contest system - Messsage service</tspan></text></g></g><g   id="j_325"  transform="translate(309,788)" style=""><g id="v-3673"><rect  id="v-3674" width="490" height="411" rx="0" ry="0" fill="#ffffff" stroke="#3c7fc0" stroke-width="1" stroke-dasharray="20,20" pointer-events="none"></rect><text  id="v-3675" font-size="24px" xml:space="preserve" y="372" font-weight="normal" fill="#3c7fc0" text-anchor="start" pointer-events="visible" font-family="Open Sans" transform="matrix(1,0,0,1,15,0)"><tspan dy="0" >Messsage service</tspan></text><text  id="v-3676" font-size="17px" xml:space="preserve" y="396" font-weight="normal" fill="#3c7fc0" text-anchor="start" pointer-events="visible" font-family="Open Sans" transform="matrix(1,0,0,1,15,0)"><tspan dy="0" >[Container]</tspan></text><image  id="v-3677" pointer-events="visible"></image></g></g><g   id="j_324"  transform="translate(329,808)" style=""><g  id="v-3664" style="opacity: 1;"><rect  id="v-3665" rx="10" ry="10" stroke="#78a8d8" stroke-width="2" pointer-events="visiblePainted" fill="#85bbf0" x="37.5" width="412.5" height="300" style="fill: rgb(133, 187, 240); stroke: rgb(120, 168, 216);"></rect><rect  id="v-3666" rx="5" ry="5" stroke="#78a8d8" stroke-width="2" pointer-events="visiblePainted" fill="#85bbf0" x="0" y="22.5" width="75" height="37.5" style="fill: rgb(133, 187, 240); stroke: rgb(120, 168, 216);"></rect><rect  id="v-3667" rx="5" ry="5" stroke="#78a8d8" stroke-width="2" pointer-events="visiblePainted" fill="#85bbf0" x="0" y="75" width="75" height="37.5" style="fill: rgb(133, 187, 240); stroke: rgb(120, 168, 216);"></rect><text  id="v-3668" font-size="34" xml:space="preserve" y="0.8em" font-weight="bold" text-anchor="middle" pointer-events="visible" font-family="Open Sans" fill="#000000" transform="matrix(1,0,0,1,243.8,98.1)" style="fill: rgb(0, 0, 0);"><tspan dy="0" >Sender</tspan></text><text  id="v-3669" font-size="17" xml:space="preserve" y="0.8em" text-anchor="middle" font-family="Open Sans" fill="#000000" transform="matrix(1,0,0,1,243.8,140.6)" style="fill: rgb(0, 0, 0);"><tspan dy="0" >[Component]</tspan></text><text  id="v-3670" font-size="24" xml:space="preserve" y="0.8em" text-anchor="middle" font-family="Open Sans" fill="#000000" transform="matrix(1,0,0,1,243.8,171.9)" style="fill: rgb(0, 0, 0);"><tspan dy="0" >Компонент рассылки сообщений</tspan></text><g  id="v-3671" font-weight="normal" text-anchor="middle" color="#000000" transform="matrix(1,0,0,1,241.5,211.9)" display="none" style="fill: rgb(0, 0, 0);"><g ></g><g ></g><g ></g><g ></g></g><image  id="v-3672"></image></g></g><g   id="j_326"  transform="translate(329,208)" style=""><g  id="v-3678" style="opacity: 1;"><path  d="M 30,0 a 30,150 0,0,1 0 300 a 30,150 0,0,1 0 -300 l 390,0 a 30,150 0,0,1 0 300 l -390,0" id="v-3679" stroke="#3c7fc0" stroke-width="2" pointer-events="visiblePainted" fill="#438dd5" style="fill: rgb(67, 141, 213); stroke: rgb(60, 127, 192);"></path><rect  id="v-3680" stroke-width="0" pointer-events="visiblePainted" fill="none" stroke="none" width="420" height="300" x="30" y="0"></rect><text  id="v-3681" font-size="34" xml:space="preserve" y="0.8em" font-weight="bold" text-anchor="middle" pointer-events="visible" font-family="Open Sans" fill="#ffffff" transform="matrix(1,0,0,1,240,98.1)" style="fill: rgb(255, 255, 255);"><tspan dy="0" >Message broker</tspan></text><text  id="v-3682" font-size="17" xml:space="preserve" y="0.8em" text-anchor="middle" font-family="Open Sans" fill="#ffffff" transform="matrix(1,0,0,1,240,140.6)" style="fill: rgb(255, 255, 255);"><tspan dy="0" >[Container]</tspan></text><text  id="v-3683" font-size="24" xml:space="preserve" y="0.8em" text-anchor="middle" font-family="Open Sans" fill="#ffffff" transform="matrix(1,0,0,1,240,171.9)" style="fill: rgb(255, 255, 255);"><tspan dy="0" >Брокер сообщений</tspan></text><g  id="v-3684" font-weight="normal" text-anchor="middle" color="#ffffff" transform="matrix(1,0,0,1,237.5,211.9)" display="none" style="fill: rgb(255, 255, 255);"><g ></g><g ></g><g ></g><g ></g></g><image  id="v-3685"></image></g></g><g   id="j_327" ><path  stroke="#707070" d="M 554 508 L 554 808" id="v-3695" stroke-width="2" stroke-dasharray="30 30" fill="none" style="opacity: 1;"></path><path  fill="black" stroke="black" d="M 0 0 0 0" transform="matrix(6.123233995736766e-17,1,-1,6.123233995736766e-17,554,508)"></path><path  fill="#707070" stroke="#707070" d="M 20 0 L 0 10 L 20 20 z" id="v-3697" transform="matrix(-1.8369701987210297e-16,-1,1,-1.8369701987210297e-16,544,807.9999999999998)" style="opacity: 1;"></path><path  d="M 554 508 L 554 808" id="v-3696" fill="none" style="cursor: auto; pointer-events: visiblepainted;"></path><g ><g id="v-3689"  label-idx="0" cursor="move" transform="matrix(1,0,0,1,554,658)" style="cursor: default; opacity: 1;"><rect joint-selector="rect" id="v-3692" fill="#ffffff" rx="3" ry="3" pointer-events="none" width="59.92711639404297" height="32.05015563964844" transform="matrix(1,0,0,1,-30,-16)"></rect><text joint-selector="text" id="v-3691" font-size="24px" xml:space="preserve" y="0.8em" fill="#707070" text-anchor="middle" pointer-events="none" font-family="Open Sans" font-weight="normal" transform="matrix(1,0,0,1,0,-10.3)"><tspan dy="0" >kafka</tspan></text></g><g id="v-3690"  label-idx="1" cursor="move" transform="matrix(1,0,0,1,544,685)" style="cursor: default; opacity: 1;"><rect joint-selector="rect" id="v-3694" fill="#ffffff" rx="3" ry="3"  width="0" height="0" transform="matrix(1,0,0,1,0,0)" display="none"></rect><text joint-selector="text" id="v-3693" fill="#000000" font-size="14" text-anchor="middle" pointer-events="none"></text></g></g><g  display="none" style="display: none;"></g><g  id="v-3699" display="none"><g  id="v-3687"><path  end="source" d="M 26 0 L 0 13 L 26 26 z"></path></g><g  id="v-3688"><path  end="target" d="M 26 0 L 0 13 L 26 26 z"></path></g></g><g  id="v-3698" display="none"><g  id="v-3686" transform="translate(554, 548) "><g  event="remove"><circle r="11"></circle><path transform="scale(.8) translate(-16, -16)" d="M24.778,21.419 19.276,15.917 24.777,10.415 21.949,7.585 16.447,13.087 10.945,7.585 8.117,10.415 13.618,15.917 8.116,21.419 10.946,24.248 16.447,18.746 21.948,24.248z"></path><title>Remove link.</title></g><g  event="link:options"><circle r="11" transform="translate(25)"></circle><path fill="white" transform="scale(.55) translate(29, -16)" d="M31.229,17.736c0.064-0.571,0.104-1.148,0.104-1.736s-0.04-1.166-0.104-1.737l-4.377-1.557c-0.218-0.716-0.504-1.401-0.851-2.05l1.993-4.192c-0.725-0.91-1.549-1.734-2.458-2.459l-4.193,1.994c-0.647-0.347-1.334-0.632-2.049-0.849l-1.558-4.378C17.165,0.708,16.588,0.667,16,0.667s-1.166,0.041-1.737,0.105L12.707,5.15c-0.716,0.217-1.401,0.502-2.05,0.849L6.464,4.005C5.554,4.73,4.73,5.554,4.005,6.464l1.994,4.192c-0.347,0.648-0.632,1.334-0.849,2.05l-4.378,1.557C0.708,14.834,0.667,15.412,0.667,16s0.041,1.165,0.105,1.736l4.378,1.558c0.217,0.715,0.502,1.401,0.849,2.049l-1.994,4.193c0.725,0.909,1.549,1.733,2.459,2.458l4.192-1.993c0.648,0.347,1.334,0.633,2.05,0.851l1.557,4.377c0.571,0.064,1.148,0.104,1.737,0.104c0.588,0,1.165-0.04,1.736-0.104l1.558-4.377c0.715-0.218,1.399-0.504,2.049-0.851l4.193,1.993c0.909-0.725,1.733-1.549,2.458-2.458l-1.993-4.193c0.347-0.647,0.633-1.334,0.851-2.049L31.229,17.736zM16,20.871c-2.69,0-4.872-2.182-4.872-4.871c0-2.69,2.182-4.872,4.872-4.872c2.689,0,4.871,2.182,4.871,4.872C20.871,18.689,18.689,20.871,16,20.871z"></path><title>Link options.</title></g></g></g></g></g><g ></g><g ></g><g ></g></g></svg>