<svg xmlns="http://www.w3.org/2000/svg" xmlns:xlink="http://www.w3.org/1999/xlink" version="1.1" viewBox="0 0 2350 1300" style="background: #ffffff"><defs joint-selector="defs"></defs><g joint-selector="layers"  transform="matrix(1,0,0,1,0,0)"><g ></g><g ><g   id="j_207"  transform="translate(20,1255)"><g id="v-2363"><text  id="v-2364" font-size="22px" xml:space="preserve" y="0.8em" font-weight="normal" text-anchor="start" fill="#aaaaaa" pointer-events="none" font-family="Open Sans"><tspan dy="0" >вторник, 18 июля 2023 г., 22:54 Самарское стандартное время</tspan></text></g></g><g   id="j_206"  transform="translate(20,1211)"><g id="v-2361"><text  id="v-2362" font-size="36px" xml:space="preserve" y="0.8em" font-weight="normal" text-anchor="start" fill="#000000" pointer-events="none" font-family="Open Sans"><tspan dy="0" >[System Landscape]</tspan></text></g></g><g   id="j_199"  transform="translate(200,200)" style=""><g  id="v-2270" style="opacity: 1;"><rect  id="v-2271" rx="10" ry="10" stroke="#073b6f" stroke-width="2" pointer-events="visiblePainted" fill="#073b6f" width="450" height="300" style="fill: rgb(7, 59, 111); stroke: rgb(7, 59, 111);"></rect><rect  id="v-2272" rx="10" ry="10" stroke="#073b6f" stroke-width="0" pointer-events="visiblePainted" fill="#08427b" width="430" height="250" x="10" y="40" style="fill: rgb(8, 66, 123);"></rect><ellipse  id="v-2279" fill="#08427b" cx="20" cy="20" rx="10" ry="10" style="fill: rgb(8, 66, 123);"></ellipse><ellipse  id="v-2280" fill="#08427b" cx="50" cy="20" rx="10" ry="10" style="fill: rgb(8, 66, 123);"></ellipse><ellipse  id="v-2281" fill="#08427b" cx="80" cy="20" rx="10" ry="10" style="fill: rgb(8, 66, 123);"></ellipse><rect  id="v-2273" rx="10" ry="10" stroke="#444444" stroke-width="0" pointer-events="visiblePainted" fill="#08427b" width="340" height="20" x="100" y="10" style="fill: rgb(8, 66, 123);"></rect><text  id="v-2274" font-size="34" xml:space="preserve" y="0.8em" font-weight="bold" text-anchor="middle" pointer-events="visible" font-family="Open Sans" fill="#ffffff" transform="matrix(1,0,0,1,225,128.1)" style="fill: rgb(255, 255, 255);"><tspan dy="0" >Студент</tspan></text><text  id="v-2275" font-size="17" xml:space="preserve" y="0.8em" text-anchor="middle" font-family="Open Sans" fill="#ffffff" transform="matrix(1,0,0,1,225,170.6)" style="fill: rgb(255, 255, 255);"><tspan dy="0" >[Person]</tspan></text><text  id="v-2276" font-size="24" xml:space="preserve" display="none" y="0.8em" text-anchor="middle" font-family="Open Sans" fill="#ffffff" transform="matrix(1,0,0,1,225,201.9)" style="fill: rgb(255, 255, 255);"><tspan dy="0" style="fill-opacity: 0; stroke-opacity: 0;" >-</tspan></text><g  id="v-2277" font-weight="normal" text-anchor="middle" color="#ffffff" transform="matrix(1,0,0,1,222.5,211.9)" display="none" style="fill: rgb(255, 255, 255);"><g ></g><g ></g><g ></g><g ></g></g><image  id="v-2278"></image></g></g><g   id="j_200"  transform="translate(950,200)" style=""><g  id="v-2282" style="opacity: 1;"><rect  id="v-2283" rx="10" ry="10" stroke="#073b6f" stroke-width="2" pointer-events="visiblePainted" fill="#073b6f" width="450" height="300" style="fill: rgb(7, 59, 111); stroke: rgb(7, 59, 111);"></rect><rect  id="v-2284" rx="10" ry="10" stroke="#073b6f" stroke-width="0" pointer-events="visiblePainted" fill="#08427b" width="430" height="250" x="10" y="40" style="fill: rgb(8, 66, 123);"></rect><ellipse  id="v-2291" fill="#08427b" cx="20" cy="20" rx="10" ry="10" style="fill: rgb(8, 66, 123);"></ellipse><ellipse  id="v-2292" fill="#08427b" cx="50" cy="20" rx="10" ry="10" style="fill: rgb(8, 66, 123);"></ellipse><ellipse  id="v-2293" fill="#08427b" cx="80" cy="20" rx="10" ry="10" style="fill: rgb(8, 66, 123);"></ellipse><rect  id="v-2285" rx="10" ry="10" stroke="#444444" stroke-width="0" pointer-events="visiblePainted" fill="#08427b" width="340" height="20" x="100" y="10" style="fill: rgb(8, 66, 123);"></rect><text  id="v-2286" font-size="34" xml:space="preserve" y="0.8em" font-weight="bold" text-anchor="middle" pointer-events="visible" font-family="Open Sans" fill="#ffffff" transform="matrix(1,0,0,1,225,128.1)" style="fill: rgb(255, 255, 255);"><tspan dy="0" >Преподаватель</tspan></text><text  id="v-2287" font-size="17" xml:space="preserve" y="0.8em" text-anchor="middle" font-family="Open Sans" fill="#ffffff" transform="matrix(1,0,0,1,225,170.6)" style="fill: rgb(255, 255, 255);"><tspan dy="0" >[Person]</tspan></text><text  id="v-2288" font-size="24" xml:space="preserve" display="none" y="0.8em" text-anchor="middle" font-family="Open Sans" fill="#ffffff" transform="matrix(1,0,0,1,225,201.9)" style="fill: rgb(255, 255, 255);"><tspan dy="0" style="fill-opacity: 0; stroke-opacity: 0;" >-</tspan></text><g  id="v-2289" font-weight="normal" text-anchor="middle" color="#ffffff" transform="matrix(1,0,0,1,222.5,211.9)" display="none" style="fill: rgb(255, 255, 255);"><g ></g><g ></g><g ></g><g ></g></g><image  id="v-2290"></image></g></g><g   id="j_201"  transform="translate(1700,200)" style=""><g  id="v-2294" style="opacity: 1;"><rect  id="v-2295" rx="10" ry="10" stroke="#073b6f" stroke-width="2" pointer-events="visiblePainted" fill="#073b6f" width="450" height="300" style="fill: rgb(7, 59, 111); stroke: rgb(7, 59, 111);"></rect><rect  id="v-2296" rx="10" ry="10" stroke="#073b6f" stroke-width="0" pointer-events="visiblePainted" fill="#08427b" width="430" height="250" x="10" y="40" style="fill: rgb(8, 66, 123);"></rect><ellipse  id="v-2303" fill="#08427b" cx="20" cy="20" rx="10" ry="10" style="fill: rgb(8, 66, 123);"></ellipse><ellipse  id="v-2304" fill="#08427b" cx="50" cy="20" rx="10" ry="10" style="fill: rgb(8, 66, 123);"></ellipse><ellipse  id="v-2305" fill="#08427b" cx="80" cy="20" rx="10" ry="10" style="fill: rgb(8, 66, 123);"></ellipse><rect  id="v-2297" rx="10" ry="10" stroke="#444444" stroke-width="0" pointer-events="visiblePainted" fill="#08427b" width="340" height="20" x="100" y="10" style="fill: rgb(8, 66, 123);"></rect><text  id="v-2298" font-size="34" xml:space="preserve" y="0.8em" font-weight="bold" text-anchor="middle" pointer-events="visible" font-family="Open Sans" fill="#ffffff" transform="matrix(1,0,0,1,225,128.1)" style="fill: rgb(255, 255, 255);"><tspan dy="0" >Менеджер</tspan></text><text  id="v-2299" font-size="17" xml:space="preserve" y="0.8em" text-anchor="middle" font-family="Open Sans" fill="#ffffff" transform="matrix(1,0,0,1,225,170.6)" style="fill: rgb(255, 255, 255);"><tspan dy="0" >[Person]</tspan></text><text  id="v-2300" font-size="24" xml:space="preserve" display="none" y="0.8em" text-anchor="middle" font-family="Open Sans" fill="#ffffff" transform="matrix(1,0,0,1,225,201.9)" style="fill: rgb(255, 255, 255);"><tspan dy="0" style="fill-opacity: 0; stroke-opacity: 0;" >-</tspan></text><g  id="v-2301" font-weight="normal" text-anchor="middle" color="#ffffff" transform="matrix(1,0,0,1,222.5,211.9)" display="none" style="fill: rgb(255, 255, 255);"><g ></g><g ></g><g ></g><g ></g></g><image  id="v-2302"></image></g></g><g   id="j_202"  transform="translate(950,800)" style=""><g  id="v-2309" style="opacity: 1;"><rect  id="v-2310" rx="20" ry="20" stroke="#0f5eaa" stroke-width="2" pointer-events="visiblePainted" fill="#1168bd" width="450" height="300" style="fill: rgb(17, 104, 189); stroke: rgb(15, 94, 170);"></rect><text  id="v-2311" font-size="34" xml:space="preserve" y="0.8em" font-weight="bold" text-anchor="middle" pointer-events="visible" font-family="Open Sans" fill="#ffffff" transform="matrix(1,0,0,1,225,83.1)" style="fill: rgb(255, 255, 255);"><tspan dy="0" >Contest system</tspan></text><text  id="v-2312" font-size="17" xml:space="preserve" y="0.8em" text-anchor="middle" font-family="Open Sans" fill="#ffffff" transform="matrix(1,0,0,1,225,125.6)" style="fill: rgb(255, 255, 255);"><tspan dy="0" >[Software System]</tspan></text><text  id="v-2313" font-size="24" xml:space="preserve" y="0.8em" text-anchor="middle" font-family="Open Sans" fill="#ffffff" transform="matrix(1,0,0,1,225,156.9)" style="fill: rgb(255, 255, 255);"><tspan dy="0" >Площадка по обучению</tspan><tspan dy="1.2em" x="0" >спортивного программирования</tspan></text><g  id="v-2314" color="#ffffff" transform="matrix(1,0,0,1,210,226.9)" display="none" style="fill: rgb(255, 255, 255);"><g  transform="translate(5 0)"><svg xmlns="http://www.w3.org/2000/svg" width="20" height="20" fill="currentColor" viewBox="0 0 16 16"><path fill-rule="evenodd" d="M6.5 12a5.5 5.5 0 1 0 0-11 5.5 5.5 0 0 0 0 11zM13 6.5a6.5 6.5 0 1 1-13 0 6.5 6.5 0 0 1 13 0z"></path><path d="M10.344 11.742c.03.04.062.078.098.115l3.85 3.85a1 1 0 0 0 1.415-1.414l-3.85-3.85a1.007 1.007 0 0 0-.115-.1 6.538 6.538 0 0 1-1.398 1.4z"></path><path fill-rule="evenodd" d="M6.5 3a.5.5 0 0 1 .5.5V6h2.5a.5.5 0 0 1 0 1H7v2.5a.5.5 0 0 1-1 0V7H3.5a.5.5 0 0 1 0-1H6V3.5a.5.5 0 0 1 .5-.5z"></path></svg></g><g ></g><g ></g><g ></g></g><image  id="v-2315"></image></g></g><g   id="j_203" ><path  stroke="#707070" d="M 1175 500 L 1175 800" id="v-2325" stroke-width="2" stroke-dasharray="30 30" fill="none" style="opacity: 1;"></path><path  fill="black" stroke="black" d="M 0 0 0 0" transform="matrix(6.123233995736766e-17,1,-1,6.123233995736766e-17,1175,500)"></path><path  fill="#707070" stroke="#707070" d="M 20 0 L 0 10 L 20 20 z" id="v-2327" transform="matrix(-1.8369701987210297e-16,-1,1,-1.8369701987210297e-16,1165,799.9999999999999)" style="opacity: 1;"></path><path  d="M 1175 500 L 1175 800" id="v-2326" fill="none" style="cursor: auto; pointer-events: visiblepainted;"></path><g ><g id="v-2319"  label-idx="0" cursor="move" transform="matrix(1,0,0,1,1175,650)" style="cursor: default; opacity: 1;"><rect joint-selector="rect" id="v-2322" fill="#ffffff" rx="3" ry="3" pointer-events="none" width="57.944740295410156" height="32.60187530517578" transform="matrix(1,0,0,1,-29,-16.3)"></rect><text joint-selector="text" id="v-2321" font-size="24px" xml:space="preserve" y="0.8em" fill="#707070" text-anchor="middle" pointer-events="none" font-family="Open Sans" font-weight="normal" transform="matrix(1,0,0,1,0,-9.4)"><tspan dy="0" >https</tspan></text></g><g id="v-2320"  label-idx="1" cursor="move" transform="matrix(1,0,0,1,1165,677)" style="cursor: default; opacity: 1;"><rect joint-selector="rect" id="v-2324" fill="#ffffff" rx="3" ry="3"  width="0" height="0" transform="matrix(1,0,0,1,0,0)" display="none"></rect><text joint-selector="text" id="v-2323" fill="#000000" font-size="14" text-anchor="middle" pointer-events="none"></text></g></g><g  display="none" style="display: none;"></g><g  id="v-2329" display="none"><g  id="v-2317"><path  end="source" d="M 26 0 L 0 13 L 26 26 z"></path></g><g  id="v-2318"><path  end="target" d="M 26 0 L 0 13 L 26 26 z"></path></g></g><g  id="v-2328" display="none"><g  id="v-2316" transform="translate(1175, 540) "><g  event="remove"><circle r="11"></circle><path transform="scale(.8) translate(-16, -16)" d="M24.778,21.419 19.276,15.917 24.777,10.415 21.949,7.585 16.447,13.087 10.945,7.585 8.117,10.415 13.618,15.917 8.116,21.419 10.946,24.248 16.447,18.746 21.948,24.248z"></path><title>Remove link.</title></g><g  event="link:options"><circle r="11" transform="translate(25)"></circle><path fill="white" transform="scale(.55) translate(29, -16)" d="M31.229,17.736c0.064-0.571,0.104-1.148,0.104-1.736s-0.04-1.166-0.104-1.737l-4.377-1.557c-0.218-0.716-0.504-1.401-0.851-2.05l1.993-4.192c-0.725-0.91-1.549-1.734-2.458-2.459l-4.193,1.994c-0.647-0.347-1.334-0.632-2.049-0.849l-1.558-4.378C17.165,0.708,16.588,0.667,16,0.667s-1.166,0.041-1.737,0.105L12.707,5.15c-0.716,0.217-1.401,0.502-2.05,0.849L6.464,4.005C5.554,4.73,4.73,5.554,4.005,6.464l1.994,4.192c-0.347,0.648-0.632,1.334-0.849,2.05l-4.378,1.557C0.708,14.834,0.667,15.412,0.667,16s0.041,1.165,0.105,1.736l4.378,1.558c0.217,0.715,0.502,1.401,0.849,2.049l-1.994,4.193c0.725,0.909,1.549,1.733,2.459,2.458l4.192-1.993c0.648,0.347,1.334,0.633,2.05,0.851l1.557,4.377c0.571,0.064,1.148,0.104,1.737,0.104c0.588,0,1.165-0.04,1.736-0.104l1.558-4.377c0.715-0.218,1.399-0.504,2.049-0.851l4.193,1.993c0.909-0.725,1.733-1.549,2.458-2.458l-1.993-4.193c0.347-0.647,0.633-1.334,0.851-2.049L31.229,17.736zM16,20.871c-2.69,0-4.872-2.182-4.872-4.871c0-2.69,2.182-4.872,4.872-4.872c2.689,0,4.871,2.182,4.871,4.872C20.871,18.689,18.689,20.871,16,20.871z"></path><title>Link options.</title></g></g></g></g><g   id="j_204" ><path  stroke="#707070" d="M 1738 500 L 1363 800" id="v-2339" stroke-width="2" stroke-dasharray="30 30" fill="none" style="opacity: 1;"></path><path  fill="black" stroke="black" d="M 0 0 0 0" transform="matrix(-0.7808688416748546,0.6246950072646418,-0.6246950072646418,-0.7808688416748546,1737.5,500)"></path><path  fill="#707070" stroke="#707070" d="M 20 0 L 0 10 L 20 20 z" id="v-2341" transform="matrix(0.7808686753084834,-0.624695215222571,0.624695215222571,0.7808686753084834,1356.253076915002,792.1913171569533)" style="opacity: 1;"></path><path  d="M 1738 500 L 1363 800" id="v-2340" fill="none" style="cursor: auto; pointer-events: visiblepainted;"></path><g ><g id="v-2333"  label-idx="0" cursor="move" transform="matrix(1,0,0,1,1550.5,650)" style="cursor: default; opacity: 1;"><rect joint-selector="rect" id="v-2336" fill="#ffffff" rx="3" ry="3" pointer-events="none" width="57.944740295410156" height="32.60187530517578" transform="matrix(1,0,0,1,-29,-16.3)"></rect><text joint-selector="text" id="v-2335" font-size="24px" xml:space="preserve" y="0.8em" fill="#707070" text-anchor="middle" pointer-events="none" font-family="Open Sans" font-weight="normal" transform="matrix(1,0,0,1,0,-9.4)"><tspan dy="0" >https</tspan></text></g><g id="v-2334"  label-idx="1" cursor="move" transform="matrix(1,0,0,1,1540.5,677)" style="cursor: default; opacity: 1;"><rect joint-selector="rect" id="v-2338" fill="#ffffff" rx="3" ry="3"  width="0" height="0" transform="matrix(1,0,0,1,0,0)" display="none"></rect><text joint-selector="text" id="v-2337" fill="#000000" font-size="14" text-anchor="middle" pointer-events="none"></text></g></g><g  display="none" style="display: none;"></g><g  id="v-2343" display="none"><g  id="v-2331"><path  end="source" d="M 26 0 L 0 13 L 26 26 z"></path></g><g  id="v-2332"><path  end="target" d="M 26 0 L 0 13 L 26 26 z"></path></g></g><g  id="v-2342" display="none"><g  id="v-2330" transform="translate(1706.7652476222788, 524.987801902177) "><g  event="remove"><circle r="11"></circle><path transform="scale(.8) translate(-16, -16)" d="M24.778,21.419 19.276,15.917 24.777,10.415 21.949,7.585 16.447,13.087 10.945,7.585 8.117,10.415 13.618,15.917 8.116,21.419 10.946,24.248 16.447,18.746 21.948,24.248z"></path><title>Remove link.</title></g><g  event="link:options"><circle r="11" transform="translate(25)"></circle><path fill="white" transform="scale(.55) translate(29, -16)" d="M31.229,17.736c0.064-0.571,0.104-1.148,0.104-1.736s-0.04-1.166-0.104-1.737l-4.377-1.557c-0.218-0.716-0.504-1.401-0.851-2.05l1.993-4.192c-0.725-0.91-1.549-1.734-2.458-2.459l-4.193,1.994c-0.647-0.347-1.334-0.632-2.049-0.849l-1.558-4.378C17.165,0.708,16.588,0.667,16,0.667s-1.166,0.041-1.737,0.105L12.707,5.15c-0.716,0.217-1.401,0.502-2.05,0.849L6.464,4.005C5.554,4.73,4.73,5.554,4.005,6.464l1.994,4.192c-0.347,0.648-0.632,1.334-0.849,2.05l-4.378,1.557C0.708,14.834,0.667,15.412,0.667,16s0.041,1.165,0.105,1.736l4.378,1.558c0.217,0.715,0.502,1.401,0.849,2.049l-1.994,4.193c0.725,0.909,1.549,1.733,2.459,2.458l4.192-1.993c0.648,0.347,1.334,0.633,2.05,0.851l1.557,4.377c0.571,0.064,1.148,0.104,1.737,0.104c0.588,0,1.165-0.04,1.736-0.104l1.558-4.377c0.715-0.218,1.399-0.504,2.049-0.851l4.193,1.993c0.909-0.725,1.733-1.549,2.458-2.458l-1.993-4.193c0.347-0.647,0.633-1.334,0.851-2.049L31.229,17.736zM16,20.871c-2.69,0-4.872-2.182-4.872-4.871c0-2.69,2.182-4.872,4.872-4.872c2.689,0,4.871,2.182,4.871,4.872C20.871,18.689,18.689,20.871,16,20.871z"></path><title>Link options.</title></g></g></g></g><g   id="j_205" ><path  stroke="#707070" d="M 613 500 L 988 800" id="v-2353" stroke-width="2" stroke-dasharray="30 30" fill="none" style="opacity: 1;"></path><path  fill="black" stroke="black" d="M 0 0 0 0" transform="matrix(0.7808688000832672,0.624695059254128,-0.624695059254128,0.7808688000832672,612.5,500)"></path><path  fill="#707070" stroke="#707070" d="M 20 0 L 0 10 L 20 20 z" id="v-2355" transform="matrix(-0.7808688416748548,-0.6246950072646416,0.6246950072646416,-0.7808688416748548,981.2530225237896,807.8086902472074)" style="opacity: 1;"></path><path  d="M 613 500 L 988 800" id="v-2354" fill="none" style="cursor: auto; pointer-events: visiblepainted;"></path><g ><g id="v-2347"  label-idx="0" cursor="move" transform="matrix(1,0,0,1,800.5,650)" style="cursor: default; opacity: 1;"><rect joint-selector="rect" id="v-2350" fill="#ffffff" rx="3" ry="3" pointer-events="none" width="57.944740295410156" height="32.60187530517578" transform="matrix(1,0,0,1,-29,-16.3)"></rect><text joint-selector="text" id="v-2349" font-size="24px" xml:space="preserve" y="0.8em" fill="#707070" text-anchor="middle" pointer-events="none" font-family="Open Sans" font-weight="normal" transform="matrix(1,0,0,1,0,-9.4)"><tspan dy="0" >https</tspan></text></g><g id="v-2348"  label-idx="1" cursor="move" transform="matrix(1,0,0,1,790.5,677)" style="cursor: default; opacity: 1;"><rect joint-selector="rect" id="v-2352" fill="#ffffff" rx="3" ry="3"  width="0" height="0" transform="matrix(1,0,0,1,0,0)" display="none"></rect><text joint-selector="text" id="v-2351" fill="#000000" font-size="14" text-anchor="middle" pointer-events="none"></text></g></g><g  display="none" style="display: none;"></g><g  id="v-2357" display="none"><g  id="v-2345"><path  end="source" d="M 26 0 L 0 13 L 26 26 z"></path></g><g  id="v-2346"><path  end="target" d="M 26 0 L 0 13 L 26 26 z"></path></g></g><g  id="v-2356" display="none"><g  id="v-2344" transform="translate(644.2347523777213, 524.987801902177) "><g  event="remove"><circle r="11"></circle><path transform="scale(.8) translate(-16, -16)" d="M24.778,21.419 19.276,15.917 24.777,10.415 21.949,7.585 16.447,13.087 10.945,7.585 8.117,10.415 13.618,15.917 8.116,21.419 10.946,24.248 16.447,18.746 21.948,24.248z"></path><title>Remove link.</title></g><g  event="link:options"><circle r="11" transform="translate(25)"></circle><path fill="white" transform="scale(.55) translate(29, -16)" d="M31.229,17.736c0.064-0.571,0.104-1.148,0.104-1.736s-0.04-1.166-0.104-1.737l-4.377-1.557c-0.218-0.716-0.504-1.401-0.851-2.05l1.993-4.192c-0.725-0.91-1.549-1.734-2.458-2.459l-4.193,1.994c-0.647-0.347-1.334-0.632-2.049-0.849l-1.558-4.378C17.165,0.708,16.588,0.667,16,0.667s-1.166,0.041-1.737,0.105L12.707,5.15c-0.716,0.217-1.401,0.502-2.05,0.849L6.464,4.005C5.554,4.73,4.73,5.554,4.005,6.464l1.994,4.192c-0.347,0.648-0.632,1.334-0.849,2.05l-4.378,1.557C0.708,14.834,0.667,15.412,0.667,16s0.041,1.165,0.105,1.736l4.378,1.558c0.217,0.715,0.502,1.401,0.849,2.049l-1.994,4.193c0.725,0.909,1.549,1.733,2.459,2.458l4.192-1.993c0.648,0.347,1.334,0.633,2.05,0.851l1.557,4.377c0.571,0.064,1.148,0.104,1.737,0.104c0.588,0,1.165-0.04,1.736-0.104l1.558-4.377c0.715-0.218,1.399-0.504,2.049-0.851l4.193,1.993c0.909-0.725,1.733-1.549,2.458-2.458l-1.993-4.193c0.347-0.647,0.633-1.334,0.851-2.049L31.229,17.736zM16,20.871c-2.69,0-4.872-2.182-4.872-4.871c0-2.69,2.182-4.872,4.872-4.872c2.689,0,4.871,2.182,4.871,4.872C20.871,18.689,18.689,20.871,16,20.871z"></path><title>Link options.</title></g></g></g></g></g><g ></g><g ></g><g ></g></g></svg>